<svg width="34" height="34" viewBox="0 0 34 34" fill="none" xmlns="http://www.w3.org/2000/svg">
<rect width="34" height="34" rx="8" fill="#18181B"/>
<path d="M24 2C28.4183 2 32 5.58172 32 10V24C32 28.4183 28.4183 32 24 32H10C5.58172 32 2 28.4183 2 24V10C2 5.58172 5.58172 2 10 2H24ZM29.3154 6.68555C25.8006 3.17127 17.8859 5.38754 11.6377 11.6357C5.38939 17.8841 3.17378 25.7988 6.68848 29.3135C10.2033 32.8279 18.1179 30.6116 24.3662 24.3633C30.6143 18.115 32.8301 10.2002 29.3154 6.68555Z" fill="#FAFAFA"/>
<path d="M17 11.5C17 11.5 17.3035 14.3325 18.4855 15.5145C19.6675 16.6965 22.5 17 22.5 17C22.5 17 19.6675 17.3035 18.4855 18.4855C17.3035 19.6675 17 22.5 17 22.5C17 22.5 16.6965 19.6675 15.5145 18.4855C14.3325 17.3035 11.5 17 11.5 17C11.5 17 14.3325 16.6965 15.5145 15.5145C16.6965 14.3325 17 11.5 17 11.5Z" fill="#FAFAFA"/>
<circle cx="25.5" cy="8.5" r="1.5" fill="#FAFAFA"/>
</svg>
