<svg width="40" height="40" viewBox="0 0 40 40" fill="none" xmlns="http://www.w3.org/2000/svg">
<rect width="40" height="40" rx="8" fill="#18181B"/>
<path d="M27 5C31.4183 5 35 8.58172 35 13V27C35 31.4183 31.4183 35 27 35H13C8.58172 35 5 31.4183 5 27V13C5 8.58172 8.58172 5 13 5H27ZM31.3154 8.68555C27.8006 5.17127 19.8859 7.38754 13.6377 13.6357C7.38939 19.8841 5.17378 27.7988 8.68848 31.3135C12.2033 34.8279 20.1179 32.6116 26.3662 26.3633C32.6143 20.115 34.8301 12.2002 31.3154 8.68555Z" fill="#FAFAFA"/>
<path d="M20 14.5C20 14.5 20.3035 17.3325 21.4855 18.5145C22.6675 19.6965 25.5 20 25.5 20C25.5 20 22.6675 20.3035 21.4855 21.4855C20.3035 22.6675 20 25.5 20 25.5C20 25.5 19.6965 22.6675 18.5145 21.4855C17.3325 20.3035 14.5 20 14.5 20C14.5 20 17.3325 19.6965 18.5145 18.5145C19.6965 17.3325 20 14.5 20 14.5Z" fill="#FAFAFA"/>
<circle cx="28.5" cy="11.5" r="1.5" fill="#FAFAFA"/>
</svg>
