<svg width="40" height="40" viewBox="0 0 40 40" fill="none" xmlns="http://www.w3.org/2000/svg">
<rect width="40" height="40" rx="12" fill="#18181B"/>
<path d="M27 5C31.4183 5 35 8.58172 35 13V27C35 31.4183 31.4183 35 27 35H13C8.58172 35 5 31.4183 5 27V13C5 8.58172 8.58172 5 13 5H27ZM32.3154 9.68555C28.8006 6.17127 20.8859 8.38754 14.6377 14.6357C8.38939 20.8841 6.17378 28.7988 9.68848 32.3135C13.2033 35.8279 21.1179 33.6116 27.3662 27.3633C33.6143 21.115 35.8301 13.2002 32.3154 9.68555Z" fill="#FAFAFA"/>
<path d="M20 14.5C20 14.5 20.3035 17.3325 21.4855 18.5145C22.6675 19.6965 25.5 20 25.5 20C25.5 20 22.6675 20.3035 21.4855 21.4855C20.3035 22.6675 20 25.5 20 25.5C20 25.5 19.6965 22.6675 18.5145 21.4855C17.3325 20.3035 14.5 20 14.5 20C14.5 20 17.3325 19.6965 18.5145 18.5145C19.6965 17.3325 20 14.5 20 14.5Z" fill="#FAFAFA"/>
<circle cx="28.5" cy="11.5" r="1.5" fill="#FAFAFA"/>
</svg>
