<svg viewBox="0 0 32 32" fill="none" xmlns="http://www.w3.org/2000/svg">
<path d="M23 1C27.4183 1 31 4.58172 31 9V23C31 27.4183 27.4183 31 23 31H9C4.58172 31 1 27.4183 1 23V9C1 4.58172 4.58172 1 9 1H23ZM27.3154 4.68555C23.8006 1.17127 15.8859 3.38754 9.6377 9.63574C3.38939 15.8841 1.17378 23.7988 4.68848 27.3135C8.20328 30.8279 16.1179 28.6116 22.3662 22.3633C28.6143 16.115 30.8301 8.20019 27.3154 4.68555Z" fill="black"/>
<path d="M16 10.5C16 10.5 16.3035 13.3325 17.4855 14.5145C18.6675 15.6965 21.5 16 21.5 16C21.5 16 18.6675 16.3035 17.4855 17.4855C16.3035 18.6675 16 21.5 16 21.5C16 21.5 15.6965 18.6675 14.5145 17.4855C13.3325 16.3035 10.5 16 10.5 16C10.5 16 13.3325 15.6965 14.5145 14.5145C15.6965 13.3325 16 10.5 16 10.5Z" fill="black"/>
<circle cx="24.5" cy="7.5" r="1.5" fill="black"/>
</svg>
