<svg width="30" height="30" viewBox="0 0 30 30" fill="none" xmlns="http://www.w3.org/2000/svg">
<g clip-path="url(#clip0_50_23)">
<rect width="30" height="30" rx="8" fill="#18181B"/>
<path d="M22 0C26.4183 0 30 3.58172 30 8V22C30 26.4183 26.4183 30 22 30H8C3.58172 30 2.25497e-07 26.4183 0 22V8C0 3.58172 3.58172 2.2549e-07 8 0H22ZM26.3154 3.68555C22.8006 0.171273 14.8859 2.38754 8.6377 8.63574C2.38939 14.8841 0.173779 22.7988 3.68848 26.3135C7.20328 29.8279 15.1179 27.6116 21.3662 21.3633C27.6143 15.115 29.8301 7.20019 26.3154 3.68555Z" fill="#FAFAFA"/>
<path d="M15 9.5C15 9.5 15.3035 12.3325 16.4855 13.5145C17.6675 14.6965 20.5 15 20.5 15C20.5 15 17.6675 15.3035 16.4855 16.4855C15.3035 17.6675 15 20.5 15 20.5C15 20.5 14.6965 17.6675 13.5145 16.4855C12.3325 15.3035 9.5 15 9.5 15C9.5 15 12.3325 14.6965 13.5145 13.5145C14.6965 12.3325 15 9.5 15 9.5Z" fill="#FAFAFA"/>
<circle cx="23.5" cy="6.5" r="1.5" fill="#FAFAFA"/>
</g>
<defs>
<clipPath id="clip0_50_23">
<rect width="30" height="30" rx="8" fill="white"/>
</clipPath>
</defs>
</svg>
